<svg width="300" height="75" viewBox="0 0 300 75" fill="none" xmlns="http://www.w3.org/2000/svg">
<path d="M45.1889 27.7781C45.2436 27.8732 45.1866 27.9781 45.1243 28.0579C44.9147 28.3268 44.0551 28.8146 43.7348 29.1097C42.691 30.0718 42.4564 31.3223 43.0702 32.626C44.8623 34.7092 46.4446 37.4679 48.2951 39.4474C48.9726 40.172 49.9117 40.507 50.9009 40.3493C51.9323 40.1849 52.5772 39.3508 53.4183 38.839C55.0587 43.1567 55.5022 47.7712 54.8837 52.3525C54.1469 52.0488 53.4933 51.533 52.6463 51.533C51.0808 51.533 50.485 52.5679 49.7737 53.7125C49.2238 54.5977 47.0788 58.01 46.9458 58.78C46.7419 59.9606 47.1215 61.0199 48.0872 61.7171C48.427 61.9624 50.4103 62.9892 50.4801 63.1088C50.5244 63.1849 50.4779 63.2671 50.4473 63.3401C50.2 63.929 48.6406 65.6907 48.1322 66.2355C43.9548 70.7122 36.3269 74.2895 30.1863 74.4955C27.2536 74.5939 20.3058 73.5201 17.8344 71.9566C14.1143 69.603 16.0736 63.8682 20.5842 64.321C21.4364 64.4066 22.559 65.0409 23.4099 65.3204C34.0452 68.8132 45.2511 61.8053 46.7362 50.7551C47.9423 41.7804 42.1903 33.1296 33.3873 30.9973C31.4469 30.5273 29.5445 30.7277 28.29 28.8514C26.6287 26.3668 27.9435 23.0186 30.8747 22.431C31.991 22.2072 33.6676 22.5724 34.8001 22.8269C38.5865 23.6774 42.1108 25.4567 45.1887 27.7781H45.1889Z" fill="#62BAF3"/>
<path d="M10.0481 22.3078C11.4029 23.2562 13.0112 23.5191 14.2779 22.2662C15.3104 20.486 16.631 18.6551 17.5476 16.8265C18.012 15.8999 18.1825 15.277 17.8162 14.2502C17.3233 12.8682 15.4991 12.3026 14.3651 11.5541L14.3932 11.3939C16.656 8.18626 19.4797 5.507 22.9838 3.70375C26.1854 2.05635 30.3157 0.450516 33.9311 0.246508C37.2589 0.0587587 43.5579 0.949492 46.5317 2.45532C51.2341 4.83638 48.5635 11.5199 43.7189 10.2352C42.7865 9.98797 41.7956 9.44374 40.8061 9.16028C30.6401 6.24833 20.1612 12.7424 18.2915 23.1066C16.6203 32.3693 22.3586 41.4802 31.5128 43.6946C33.5974 44.1987 35.4688 43.9349 36.7217 46.0545C38.43 48.9443 36.2941 52.475 32.9543 52.3463C32.1834 52.3166 31.0825 52.0672 30.3082 51.9009C26.4053 51.0629 22.6752 49.2572 19.5696 46.7709C21.6943 45.3558 23.1309 43.9647 21.3919 41.4457C20.1398 39.6322 18.3458 37.3568 16.915 35.6671C16.3818 35.0373 16.0862 34.6464 15.2374 34.4146C13.6223 33.9736 12.7202 34.9007 11.5527 35.8198C11.3285 35.8157 10.5053 32.8033 10.4126 32.4032C9.64705 29.1066 9.483 25.6518 10.0484 22.3076L10.0481 22.3078Z" fill="#62BAF3"/>
<path d="M58.2374 43.5344L58.7505 46.6504C58.8321 47.1442 59.298 47.4781 59.7906 47.3968L62.9061 46.8831C63.3987 46.8018 63.7326 46.3356 63.6518 45.8416L63.1379 42.7259C63.0566 42.2331 62.5915 41.8987 62.0978 41.9795L58.9833 42.4929C58.4897 42.5745 58.1559 43.0407 58.2375 43.5344M51.1295 36.9043C51.1583 36.8879 51.1853 36.8703 51.2126 36.8505L56.5357 32.7308C56.8339 32.5002 56.8888 32.0686 56.6579 31.7698L52.5406 26.4438C52.3091 26.1463 51.8867 26.0965 51.5799 26.3226L46.2564 30.4417C45.9582 30.6723 45.9045 31.103 46.1348 31.4024L50.252 36.7284C50.4632 37 50.8388 37.0691 51.1295 36.9045M54.1713 62.5018C54.3181 62.5883 54.4895 62.6123 54.6538 62.5698C54.7089 62.5552 54.7605 62.5347 54.8088 62.5072C54.905 62.4527 54.9853 62.3744 55.0429 62.2762L57.3737 58.3181C57.5516 58.015 57.4508 57.625 57.1476 57.4466L53.191 55.1141C52.8896 54.936 52.4991 55.0371 52.3198 55.3404L49.9894 59.2989C49.8114 59.6005 49.9132 59.9922 50.2149 60.1709L54.1713 62.5018Z" fill="#62BAF3"/>
<path d="M6.58079 31.2519L6.06763 28.1359C5.98607 27.6422 5.52013 27.3082 5.02752 27.3895L1.91207 27.9032C1.41945 27.9845 1.08552 28.4507 1.16632 28.9447L1.68025 32.0604C1.76151 32.5532 2.22668 32.8876 2.72037 32.8068L5.8349 32.2934C6.32843 32.2118 6.66221 31.7456 6.58064 31.2519M3.44158 12.6673L4.47587 10.9103C4.73008 10.4796 4.58626 9.92382 4.1562 9.67027L2.39947 8.63473C1.9688 8.38164 1.41409 8.52506 1.15973 8.95578L0.125439 10.7129C-0.128305 11.1443 0.0150489 11.6993 0.446336 11.9532L2.20261 12.9879C2.63267 13.2416 3.18784 13.0988 3.44158 12.6673ZM13.6887 37.8818C13.6599 37.8982 13.6329 37.9159 13.6056 37.9357L8.28248 42.0554C7.98428 42.286 7.92939 42.7176 8.16029 43.0164L12.2775 48.3424C12.509 48.6398 12.9314 48.6897 13.2382 48.4636L18.5618 44.3444C18.86 44.1139 18.9136 43.6832 18.6834 43.3838L14.5661 38.0578C14.355 37.7861 13.9794 37.7171 13.6887 37.8817M10.6468 12.2843C10.5001 12.1978 10.3287 12.1739 10.1643 12.2164C10.1093 12.231 10.0576 12.2515 10.0093 12.279C9.91319 12.3334 9.83285 12.4118 9.7752 12.51L7.44444 16.468C7.26659 16.7711 7.36732 17.1612 7.67059 17.3396L11.6271 19.672C11.9286 19.8501 12.3191 19.749 12.4983 19.4458L14.8288 15.4873C15.0068 15.1857 14.905 14.7939 14.6032 14.6152L10.6468 12.2843Z" fill="#62BAF3"/>
<path d="M89.2733 61.596C85.5236 61.596 82.3147 60.9566 79.6467 59.6778C76.9774 58.399 74.563 56.4821 72.402 53.9246L78.3569 47.9725C79.7234 49.7802 81.3109 51.1798 83.1208 52.1714C84.9294 53.163 87.1345 53.6594 89.7375 53.6594C92.0752 53.6594 93.9384 53.1968 95.3283 52.2702C96.7182 51.3449 97.4125 50.0661 97.4125 48.4351C97.4125 47.0251 97.0159 45.8788 96.2215 44.9964C95.4271 44.1153 94.3792 43.3655 93.079 42.7481C91.7775 42.1308 90.3434 41.5694 88.7779 41.0613C87.2112 40.5545 85.6458 39.9696 84.0804 39.3082C82.5136 38.6467 81.0808 37.8201 79.7793 36.8286C78.4778 35.837 77.4312 34.5582 76.6368 32.9935C75.8423 31.4288 75.4458 29.456 75.4458 27.0752C75.4458 24.2538 76.1297 21.8509 77.4975 19.8664C78.864 17.882 80.7389 16.3614 83.1208 15.3036C85.5028 14.2457 88.1929 13.7168 91.1924 13.7168C94.3688 13.7168 97.2344 14.312 99.7931 15.5024C102.351 16.6928 104.447 18.2367 106.078 20.1315L100.123 26.0836C98.7556 24.5852 97.3553 23.4832 95.9225 22.7775C94.4884 22.0731 92.8683 21.7196 91.0598 21.7196C88.986 21.7196 87.3542 22.116 86.1633 22.91C84.9723 23.7041 84.3768 24.8503 84.3768 26.3487C84.3768 27.6275 84.7734 28.6633 85.5678 29.4573C86.3622 30.2514 87.4088 30.935 88.7103 31.5081C90.0105 32.0812 91.4446 32.6322 93.0114 33.1611C94.5768 33.6901 96.1422 34.2853 97.7089 34.9468C99.2744 35.6082 100.708 36.4673 102.01 37.5264C103.31 38.5843 104.358 39.9398 105.153 41.5941C105.947 43.2472 106.344 45.2875 106.344 47.7113C106.344 52.0324 104.822 55.4269 101.779 57.8961C98.7348 60.3653 94.5664 61.5999 89.2733 61.5999V61.596Z" fill="#62BAF3"/>
<path d="M125.597 61.5971C122.686 61.5971 120.061 60.8693 117.724 59.4151C115.385 57.9609 113.556 55.9764 112.232 53.463C110.909 50.9496 110.247 48.1295 110.247 44.9975C110.247 41.8656 110.909 38.9792 112.232 36.4671C113.556 33.9537 115.385 31.9705 117.724 30.515C120.062 29.0595 122.686 28.333 125.597 28.333C127.89 28.333 129.941 28.7957 131.751 29.7223C133.559 30.6476 135.002 31.938 136.084 33.5911C137.165 35.2442 137.748 37.1078 137.837 39.1793V50.6858C137.748 52.8015 137.163 54.6768 136.084 56.3065C135.002 57.9375 133.559 59.228 131.751 60.1754C129.942 61.1228 127.89 61.5971 125.597 61.5971ZM127.184 53.5956C129.609 53.5956 131.573 52.7911 133.073 51.1823C134.572 49.5734 135.322 47.4901 135.322 44.9326C135.322 43.2574 134.98 41.7694 134.296 40.4685C133.613 39.1689 132.665 38.1539 131.452 37.4262C130.239 36.6984 128.816 36.3345 127.184 36.3345C125.553 36.3345 124.195 36.6984 122.983 37.4262C121.77 38.1539 120.821 39.1689 120.139 40.4685C119.455 41.7694 119.113 43.2574 119.113 44.9326C119.113 46.6077 119.453 48.1633 120.139 49.4629C120.823 50.7638 121.77 51.7775 122.983 52.5052C124.197 53.233 125.597 53.5969 127.184 53.5969V53.5956ZM134.859 60.9356V52.3389L136.249 44.5349L134.859 36.8635V28.9932H143.46V60.9343H134.859V60.9356Z" fill="#62BAF3"/>
<path d="M151.135 60.9379V13.125H159.802V60.9379H151.135Z" fill="#62BAF3"/>
<path d="M180.842 61.5971C177.931 61.5971 175.306 60.8693 172.969 59.4151C170.63 57.9609 168.801 55.9764 167.477 53.463C166.154 50.9496 165.492 48.1295 165.492 44.9975C165.492 41.8656 166.154 38.9792 167.477 36.4671C168.801 33.9537 170.63 31.9705 172.969 30.515C175.307 29.0595 177.931 28.333 180.842 28.333C183.135 28.333 185.186 28.7957 186.996 29.7223C188.804 30.6476 190.247 31.938 191.329 33.5911C192.41 35.2442 192.993 37.1078 193.082 39.1793V50.6858C192.993 52.8015 192.408 54.6768 191.329 56.3065C190.247 57.9375 188.804 59.228 186.996 60.1754C185.187 61.1228 183.135 61.5971 180.842 61.5971ZM182.429 53.5956C184.854 53.5956 186.817 52.7911 188.318 51.1823C189.817 49.5734 190.567 47.4901 190.567 44.9326C190.567 43.2574 190.225 41.7694 189.541 40.4685C188.857 39.1689 187.91 38.1539 186.697 37.4262C185.483 36.6984 184.061 36.3345 182.429 36.3345C180.798 36.3345 179.44 36.6984 178.228 37.4262C177.015 38.1539 176.066 39.1689 175.384 40.4685C174.7 41.7694 174.358 43.2574 174.358 44.9326C174.358 46.6077 174.698 48.1633 175.384 49.4629C176.067 50.7638 177.015 51.7775 178.228 52.5052C179.441 53.233 180.842 53.5969 182.429 53.5969V53.5956ZM190.104 60.9356V52.3389L191.494 44.5349L190.104 36.8635V28.9932H198.705V60.9343H190.104V60.9356Z" fill="#62BAF3"/>
<path d="M204.131 55.9819L221.068 33.9605H231.522L214.584 55.9819H204.131ZM204.131 60.9411V55.9819L211.011 53.4023H231.125V60.9411H204.131ZM205.322 36.5389V29H231.522V33.9605L224.575 36.5402H205.322V36.5389Z" fill="#62BAF3"/>
<path d="M249.982 61.5971C247.071 61.5971 244.446 60.8693 242.109 59.4151C239.77 57.9609 237.941 55.9764 236.617 53.463C235.294 50.9496 234.632 48.1295 234.632 44.9975C234.632 41.8656 235.294 38.9792 236.617 36.4671C237.941 33.9537 239.77 31.9705 242.109 30.515C244.447 29.0595 247.071 28.333 249.982 28.333C252.275 28.333 254.326 28.7957 256.136 29.7223C257.944 30.6476 259.388 31.938 260.469 33.5911C261.55 35.2442 262.134 37.1078 262.222 39.1793V50.6858C262.134 52.8015 261.548 54.6768 260.469 56.3065C259.388 57.9375 257.944 59.228 256.136 60.1754C254.327 61.1228 252.275 61.5971 249.982 61.5971ZM251.569 53.5956C253.994 53.5956 255.958 52.7911 257.458 51.1823C258.957 49.5734 259.707 47.4901 259.707 44.9326C259.707 43.2574 259.365 41.7694 258.682 40.4685C257.998 39.1689 257.05 38.1539 255.837 37.4262C254.624 36.6984 253.201 36.3345 251.569 36.3345C249.938 36.3345 248.58 36.6984 247.369 37.4262C246.156 38.1539 245.206 39.1689 244.524 40.4685C243.84 41.7694 243.498 43.2574 243.498 44.9326C243.498 46.6077 243.839 48.1633 244.524 49.4629C245.208 50.7638 246.156 51.7775 247.369 52.5052C248.582 53.233 249.982 53.5969 251.569 53.5969V53.5956ZM259.245 60.9356V52.3389L260.634 44.5349L259.245 36.8635V28.9932H267.845V60.9343H259.245V60.9356Z" fill="#62BAF3"/>
<path d="M275.52 60.9359V28.9948H284.187V60.9359H275.52ZM284.187 43.2785L280.813 41.0302C281.21 37.1068 282.356 34.0099 284.253 31.7382C286.149 29.4679 288.885 28.332 292.458 28.332C294.001 28.332 295.391 28.5868 296.626 29.0923C297.86 29.5991 298.985 30.427 300 31.5719L294.574 37.7878C294.088 37.2589 293.504 36.8625 292.82 36.5974C292.137 36.3323 291.354 36.201 290.472 36.201C288.62 36.201 287.109 36.7858 285.94 37.9541C284.771 39.1225 284.187 40.8964 284.187 43.2772V43.2785Z" fill="#62BAF3"/>
</svg>
